<svg width="163" height="163" viewBox="0 0 163 163" fill="none" xmlns="http://www.w3.org/2000/svg">
<g clip-path="url(#clip0_4_221)">
<path d="M129.042 54.3333H33.9583C22.6841 54.3333 13.5833 63.4342 13.5833 74.7083V115.458H40.7499V142.625H122.25V115.458H149.417V74.7083C149.417 63.4342 140.316 54.3333 129.042 54.3333ZM108.667 129.042H54.3333V95.0833H108.667V129.042ZM129.042 81.5C125.306 81.5 122.25 78.4437 122.25 74.7083C122.25 70.9729 125.306 67.9167 129.042 67.9167C132.777 67.9167 135.833 70.9729 135.833 74.7083C135.833 78.4437 132.777 81.5 129.042 81.5ZM122.25 20.375H40.7499V47.5417H122.25V20.375Z" fill="white"/>
</g>
<defs>
<clipPath id="clip0_4_221">
<rect width="163" height="163" fill="white"/>
</clipPath>
</defs>
</svg>
