<svg width="20" height="27" viewBox="0 0 20 27" fill="none" xmlns="http://www.w3.org/2000/svg">
<path d="M15.5723 0H10.5697C9.41866 0 8.4447 0.973958 8.4447 2.125V5.17969C8.4447 5.71094 8.88741 6.15365 9.41866 6.15365C9.94991 6.15365 10.4369 5.71094 10.4369 5.17969V2.08073C10.4369 1.99219 10.4812 1.94792 10.5697 1.94792H15.5723C16.6348 1.94792 17.476 2.78906 17.476 3.85156V22.8438C17.476 23.9063 16.6348 24.7474 15.5723 24.7474H10.5697C10.4812 24.7474 10.4369 24.7031 10.4369 24.6146V21.5599C10.4369 21.0286 9.99418 20.5859 9.41866 20.5859C8.84314 20.5859 8.4447 21.0286 8.4447 21.5599V24.6146C8.4447 25.7656 9.41866 26.7396 10.5697 26.7396H15.5723C17.7416 26.7396 19.4681 24.9688 19.4681 22.8438V3.89583C19.4681 1.72656 17.6973 0 15.5723 0Z" fill="black"/>
<path d="M3.35352 14.3438H11.278C11.8092 14.3438 12.252 13.9011 12.252 13.3698C12.252 12.8386 11.8092 12.3959 11.278 12.3959H3.39779L6.14258 9.60679C6.54102 9.20835 6.54102 8.58856 6.14258 8.19012C5.74414 7.79169 5.12435 7.79169 4.72591 8.19012L0.298828 12.7058C-0.0996094 13.1042 -0.0996094 13.724 0.298828 14.1224L4.72591 18.638C4.903 18.8151 5.16862 18.9479 5.43424 18.9479C5.69987 18.9479 5.92122 18.8594 6.14258 18.6823C6.54102 18.2839 6.54102 17.6641 6.14258 17.2656L3.35352 14.3438Z" fill="black"/>
</svg>
